<mxfile host="app.diagrams.net" modified="2021-08-05T08:20:13.005Z" agent="5.0 (Windows NT 10.0; Win64; x64) AppleWebKit/537.36 (KHTML, like Gecko) Chrome/92.0.4515.131 Safari/537.36" etag="tNG5HzJkBauRNM_3IXc3" version="14.9.3" type="github">
  <diagram id="gc0cg7eHzY8zfQ4f4mi9" name="Page-1">
    <mxGraphModel dx="2272" dy="762" grid="1" gridSize="10" guides="1" tooltips="1" connect="1" arrows="1" fold="1" page="1" pageScale="1" pageWidth="850" pageHeight="1100" math="0" shadow="0">
      <root>
        <mxCell id="0" />
        <mxCell id="1" parent="0" />
        <mxCell id="mKwQg6TlP93pLR_5QzQV-2" value="&lt;font color=&quot;#000099&quot;&gt;设备云平台&lt;/font&gt;" style="rounded=1;whiteSpace=wrap;html=1;" vertex="1" parent="1">
          <mxGeometry x="-140" y="360" width="1130" height="120" as="geometry" />
        </mxCell>
        <mxCell id="mKwQg6TlP93pLR_5QzQV-8" value="API接入云平台" style="edgeStyle=orthogonalEdgeStyle;rounded=0;orthogonalLoop=1;jettySize=auto;html=1;exitX=0.5;exitY=0;exitDx=0;exitDy=0;entryX=0.284;entryY=1.05;entryDx=0;entryDy=0;entryPerimeter=0;" edge="1" parent="1" source="mKwQg6TlP93pLR_5QzQV-3" target="mKwQg6TlP93pLR_5QzQV-2">
          <mxGeometry relative="1" as="geometry" />
        </mxCell>
        <mxCell id="mKwQg6TlP93pLR_5QzQV-3" value="灯控" style="rounded=0;whiteSpace=wrap;html=1;" vertex="1" parent="1">
          <mxGeometry x="120" y="560" width="120" height="60" as="geometry" />
        </mxCell>
        <mxCell id="mKwQg6TlP93pLR_5QzQV-9" value="&lt;span style=&quot;color: rgb(0 , 0 , 0) ; font-family: &amp;#34;helvetica&amp;#34; ; font-size: 11px ; font-style: normal ; font-weight: 400 ; letter-spacing: normal ; text-align: center ; text-indent: 0px ; text-transform: none ; word-spacing: 0px ; background-color: rgb(255 , 255 , 255) ; display: inline ; float: none&quot;&gt;API接入云平台&lt;/span&gt;" style="edgeStyle=orthogonalEdgeStyle;rounded=0;orthogonalLoop=1;jettySize=auto;html=1;exitX=0.5;exitY=0;exitDx=0;exitDy=0;entryX=0.425;entryY=1.05;entryDx=0;entryDy=0;entryPerimeter=0;" edge="1" parent="1" source="mKwQg6TlP93pLR_5QzQV-4" target="mKwQg6TlP93pLR_5QzQV-2">
          <mxGeometry relative="1" as="geometry" />
        </mxCell>
        <mxCell id="mKwQg6TlP93pLR_5QzQV-4" value="Wifi" style="rounded=0;whiteSpace=wrap;html=1;" vertex="1" parent="1">
          <mxGeometry x="280" y="560" width="120" height="60" as="geometry" />
        </mxCell>
        <mxCell id="mKwQg6TlP93pLR_5QzQV-10" value="API接入云平台" style="edgeStyle=orthogonalEdgeStyle;rounded=0;orthogonalLoop=1;jettySize=auto;html=1;exitX=0.5;exitY=0;exitDx=0;exitDy=0;entryX=0.567;entryY=1.008;entryDx=0;entryDy=0;entryPerimeter=0;" edge="1" parent="1" source="mKwQg6TlP93pLR_5QzQV-5" target="mKwQg6TlP93pLR_5QzQV-2">
          <mxGeometry relative="1" as="geometry" />
        </mxCell>
        <mxCell id="mKwQg6TlP93pLR_5QzQV-5" value="摄像头" style="rounded=0;whiteSpace=wrap;html=1;" vertex="1" parent="1">
          <mxGeometry x="440" y="560" width="120" height="60" as="geometry" />
        </mxCell>
        <mxCell id="mKwQg6TlP93pLR_5QzQV-11" value="API接入云平台" style="edgeStyle=orthogonalEdgeStyle;rounded=0;orthogonalLoop=1;jettySize=auto;html=1;exitX=0.5;exitY=0;exitDx=0;exitDy=0;entryX=0.707;entryY=1;entryDx=0;entryDy=0;entryPerimeter=0;" edge="1" parent="1" source="mKwQg6TlP93pLR_5QzQV-6" target="mKwQg6TlP93pLR_5QzQV-2">
          <mxGeometry relative="1" as="geometry" />
        </mxCell>
        <mxCell id="mKwQg6TlP93pLR_5QzQV-6" value="交互大屏" style="rounded=0;whiteSpace=wrap;html=1;" vertex="1" parent="1">
          <mxGeometry x="600" y="560" width="120" height="60" as="geometry" />
        </mxCell>
        <mxCell id="mKwQg6TlP93pLR_5QzQV-7" value="..." style="rounded=0;whiteSpace=wrap;html=1;" vertex="1" parent="1">
          <mxGeometry x="760" y="560" width="120" height="60" as="geometry" />
        </mxCell>
        <mxCell id="mKwQg6TlP93pLR_5QzQV-20" style="edgeStyle=orthogonalEdgeStyle;rounded=0;orthogonalLoop=1;jettySize=auto;html=1;exitX=0.25;exitY=1;exitDx=0;exitDy=0;entryX=0.5;entryY=0;entryDx=0;entryDy=0;" edge="1" parent="1" source="mKwQg6TlP93pLR_5QzQV-12" target="mKwQg6TlP93pLR_5QzQV-16">
          <mxGeometry relative="1" as="geometry">
            <Array as="points">
              <mxPoint x="220" y="340" />
              <mxPoint x="180" y="340" />
            </Array>
          </mxGeometry>
        </mxCell>
        <mxCell id="mKwQg6TlP93pLR_5QzQV-22" style="edgeStyle=orthogonalEdgeStyle;rounded=0;orthogonalLoop=1;jettySize=auto;html=1;exitX=0.5;exitY=1;exitDx=0;exitDy=0;" edge="1" parent="1" source="mKwQg6TlP93pLR_5QzQV-12" target="mKwQg6TlP93pLR_5QzQV-17">
          <mxGeometry relative="1" as="geometry">
            <Array as="points">
              <mxPoint x="250" y="350" />
              <mxPoint x="330" y="350" />
            </Array>
          </mxGeometry>
        </mxCell>
        <mxCell id="mKwQg6TlP93pLR_5QzQV-23" style="edgeStyle=orthogonalEdgeStyle;rounded=0;orthogonalLoop=1;jettySize=auto;html=1;exitX=0.75;exitY=1;exitDx=0;exitDy=0;entryX=0.5;entryY=0;entryDx=0;entryDy=0;" edge="1" parent="1" source="mKwQg6TlP93pLR_5QzQV-12" target="mKwQg6TlP93pLR_5QzQV-18">
          <mxGeometry relative="1" as="geometry">
            <Array as="points">
              <mxPoint x="280" y="340" />
              <mxPoint x="520" y="340" />
            </Array>
          </mxGeometry>
        </mxCell>
        <mxCell id="mKwQg6TlP93pLR_5QzQV-12" value="城市智慧灯杆" style="rounded=1;whiteSpace=wrap;html=1;" vertex="1" parent="1">
          <mxGeometry x="190" y="200" width="120" height="60" as="geometry" />
        </mxCell>
        <mxCell id="mKwQg6TlP93pLR_5QzQV-25" style="edgeStyle=orthogonalEdgeStyle;rounded=0;orthogonalLoop=1;jettySize=auto;html=1;exitX=0.75;exitY=1;exitDx=0;exitDy=0;" edge="1" parent="1" source="mKwQg6TlP93pLR_5QzQV-13" target="mKwQg6TlP93pLR_5QzQV-24">
          <mxGeometry relative="1" as="geometry" />
        </mxCell>
        <mxCell id="mKwQg6TlP93pLR_5QzQV-13" value="智慧消防" style="rounded=1;whiteSpace=wrap;html=1;" vertex="1" parent="1">
          <mxGeometry x="380" y="200" width="120" height="60" as="geometry" />
        </mxCell>
        <mxCell id="mKwQg6TlP93pLR_5QzQV-14" value="智慧能源" style="rounded=1;whiteSpace=wrap;html=1;" vertex="1" parent="1">
          <mxGeometry x="570" y="200" width="120" height="60" as="geometry" />
        </mxCell>
        <mxCell id="mKwQg6TlP93pLR_5QzQV-27" value="设备每个用户可以访问的设备" style="edgeStyle=orthogonalEdgeStyle;rounded=0;orthogonalLoop=1;jettySize=auto;html=1;exitX=0.5;exitY=1;exitDx=0;exitDy=0;" edge="1" parent="1" source="mKwQg6TlP93pLR_5QzQV-15">
          <mxGeometry relative="1" as="geometry">
            <mxPoint x="-39" y="537" as="targetPoint" />
          </mxGeometry>
        </mxCell>
        <mxCell id="mKwQg6TlP93pLR_5QzQV-15" value="统一身份认证中心" style="rounded=1;whiteSpace=wrap;html=1;" vertex="1" parent="1">
          <mxGeometry x="-99" y="390" width="120" height="60" as="geometry" />
        </mxCell>
        <mxCell id="mKwQg6TlP93pLR_5QzQV-16" value="灯控API" style="rounded=1;whiteSpace=wrap;html=1;" vertex="1" parent="1">
          <mxGeometry x="120" y="390" width="120" height="60" as="geometry" />
        </mxCell>
        <mxCell id="mKwQg6TlP93pLR_5QzQV-17" value="Wifi API" style="rounded=1;whiteSpace=wrap;html=1;" vertex="1" parent="1">
          <mxGeometry x="270" y="390" width="120" height="60" as="geometry" />
        </mxCell>
        <mxCell id="mKwQg6TlP93pLR_5QzQV-18" value="摄像头 API" style="rounded=1;whiteSpace=wrap;html=1;" vertex="1" parent="1">
          <mxGeometry x="460" y="390" width="120" height="60" as="geometry" />
        </mxCell>
        <mxCell id="mKwQg6TlP93pLR_5QzQV-19" value="交互大屏API" style="rounded=1;whiteSpace=wrap;html=1;" vertex="1" parent="1">
          <mxGeometry x="610" y="390" width="120" height="60" as="geometry" />
        </mxCell>
        <mxCell id="mKwQg6TlP93pLR_5QzQV-24" value="其它设备的API" style="rounded=1;whiteSpace=wrap;html=1;" vertex="1" parent="1">
          <mxGeometry x="760" y="390" width="120" height="60" as="geometry" />
        </mxCell>
        <mxCell id="mKwQg6TlP93pLR_5QzQV-26" value="" style="rounded=1;whiteSpace=wrap;html=1;fillColor=none;" vertex="1" parent="1">
          <mxGeometry x="-140" y="540" width="1120" height="110" as="geometry" />
        </mxCell>
      </root>
    </mxGraphModel>
  </diagram>
</mxfile>
